<svg width="24" height="27" viewBox="0 0 24 27" fill="none" xmlns="http://www.w3.org/2000/svg">
<path d="M11.6128 25.0005C8.3345 25.0005 5.92526 20.4464 4.57532 18.0012C3.45829 15.9779 2.61122 14.0144 2.26764 11.7075C1.9739 9.7353 2.00063 7.74464 2.00063 5.75714C2.00063 3.86479 2.46297 2 4.74697 2C6.07774 2 6.9526 2.14588 7.92241 3.1157C9.7683 4.96159 10.0786 7.36739 11.3076 9.55241C11.3998 9.7162 11.5071 8.41947 11.6223 8.16971C12.1614 7.00172 12.9457 5.84174 13.6725 4.78448C14.0653 4.2132 14.4687 3.60685 14.9599 3.1157C15.5459 2.52969 16.3016 2.50215 17.0959 2.34329C19.34 1.89447 21.3079 3.41505 21.5778 5.70946C21.75 7.17312 22.3791 9.40153 21.7399 10.8398C21.3852 11.6377 21.1702 12.5427 20.71 13.2905C20.4623 13.6931 20.0524 14.1459 19.8899 14.5683C19.6044 15.3106 18.9293 15.8226 18.6503 16.5899C18.3579 17.394 17.684 18.1153 17.1055 18.7259C16.3121 19.5633 15.6489 20.6394 14.9599 21.5581C14.4651 22.2178 13.8756 23.1216 13.2434 23.6274C12.7594 24.0146 12.6997 24.7146 12.1277 25.0005" stroke="#2348A3" stroke-width="3" stroke-linecap="round"/>
</svg>
